<svg width="33" height="43" viewBox="0 0 33 43" fill="none" xmlns="http://www.w3.org/2000/svg">
<path d="M28.875 19H4.125C3.03098 19 1.98177 19.4214 1.20818 20.1716C0.434597 20.9217 0 21.9391 0 23V39C0 40.0609 0.434597 41.0783 1.20818 41.8284C1.98177 42.5786 3.03098 43 4.125 43H28.875C29.969 43 31.0182 42.5786 31.7918 41.8284C32.5654 41.0783 33 40.0609 33 39V23C33 21.9391 32.5654 20.9217 31.7918 20.1716C31.0182 19.4214 29.969 19 28.875 19ZM28.875 39H4.125V31H28.875V39ZM28.875 27H4.125V23H28.875V27ZM26.8125 7V17H23.7188V10H12.1275L17.1187 14.86L14.9325 17L6.1875 8.5L14.9325 0L17.1187 2.14L12.1275 7H26.8125Z" fill="#F2994A"/>
</svg>
