<svg width="33" height="31" viewBox="0 0 33 31" fill="none" xmlns="http://www.w3.org/2000/svg">
<path d="M16.5 0C7.4019 0 0 6.9533 0 15.5V21.9216C0 23.5088 1.48005 24.8 3.3 24.8H4.95C5.38761 24.8 5.80729 24.6367 6.11673 24.346C6.42616 24.0553 6.6 23.6611 6.6 23.25V15.2783C6.6 14.8673 6.42616 14.473 6.11673 14.1823C5.80729 13.8917 5.38761 13.7283 4.95 13.7283H3.4518C4.3692 7.72985 9.8637 3.1 16.5 3.1C23.1363 3.1 28.6308 7.72985 29.5482 13.7283H28.05C27.6124 13.7283 27.1927 13.8917 26.8833 14.1823C26.5738 14.473 26.4 14.8673 26.4 15.2783V24.8C26.4 26.5096 24.92 27.9 23.1 27.9H19.8V26.35H13.2V31H23.1C26.7399 31 29.7 28.2193 29.7 24.8C31.5199 24.8 33 23.5088 33 21.9216V15.5C33 6.9533 25.5981 0 16.5 0Z" fill="#F2994A"/>
</svg>
