<svg width="44" height="33" viewBox="0 0 44 33" fill="none" xmlns="http://www.w3.org/2000/svg">
<path d="M38 8.25H32V0H4C1.8 0 0 1.85625 0 4.125V26.8125H4C4 30.2362 6.68 33 10 33C13.32 33 16 30.2362 16 26.8125H28C28 30.2362 30.68 33 34 33C37.32 33 40 30.2362 40 26.8125H44V16.5L38 8.25ZM37 11.3438L40.92 16.5H32V11.3438H37ZM10 28.875C8.9 28.875 8 27.9469 8 26.8125C8 25.6781 8.9 24.75 10 24.75C11.1 24.75 12 25.6781 12 26.8125C12 27.9469 11.1 28.875 10 28.875ZM14.44 22.6875C13.34 21.4294 11.78 20.625 10 20.625C8.22 20.625 6.66 21.4294 5.56 22.6875H4V4.125H28V22.6875H14.44ZM34 28.875C32.9 28.875 32 27.9469 32 26.8125C32 25.6781 32.9 24.75 34 24.75C35.1 24.75 36 25.6781 36 26.8125C36 27.9469 35.1 28.875 34 28.875Z" fill="#F2994A"/>
</svg>
