<svg width="21" height="21" viewBox="0 0 21 21" fill="none" xmlns="http://www.w3.org/2000/svg">
<path d="M1.81445 0.187988C0.849444 0.187988 0.0644531 0.973046 0.0644531 1.93802C0.0644531 2.90298 0.849119 3.68799 1.81445 3.68799C2.77979 3.68799 3.56445 2.90298 3.56445 1.93802C3.56445 0.973046 2.77941 0.187988 1.81445 0.187988Z" fill="#F2994A"/>
<path d="M9.76213 0.187988C8.79722 0.187988 8.01221 0.973046 8.01221 1.93802C8.01221 2.90298 8.79722 3.68799 9.76213 3.68799C10.7271 3.68799 11.5122 2.90298 11.5122 1.93802C11.5122 0.973046 10.7274 0.187988 9.76213 0.187988Z" fill="#F2994A"/>
<path d="M17.8389 3.68799C18.8037 3.68799 19.5889 2.903 19.5889 1.93804C19.5889 0.973088 18.8043 0.187988 17.8389 0.187988C16.8734 0.187988 16.0889 0.973033 16.0889 1.93799C16.0889 2.90294 16.874 3.68799 17.8389 3.68799Z" fill="#F2994A"/>
<path d="M1.75008 11.5566C2.7149 11.5566 3.5 10.7718 3.5 9.80675C3.5 8.84161 2.7149 8.05664 1.75008 8.05664C0.785261 8.05664 0 8.84166 0 9.80675C0 10.7718 0.785261 11.5566 1.75008 11.5566Z" fill="#F2994A"/>
<path d="M9.69818 11.5566C10.663 11.5566 11.4482 10.7718 11.4482 9.80675C11.4482 8.84161 10.6636 8.05664 9.69818 8.05664C8.7329 8.05664 7.94818 8.84161 7.94818 9.80675C7.94818 10.7718 8.73323 11.5566 9.69818 11.5566Z" fill="#F2994A"/>
<path d="M17.7747 11.5566C18.7397 11.5566 19.5244 10.7718 19.5244 9.80675C19.5244 8.84161 18.7397 8.05664 17.7747 8.05664C16.8097 8.05664 16.0244 8.84161 16.0244 9.80675C16.0244 10.7718 16.8095 11.5566 17.7747 11.5566Z" fill="#F2994A"/>
<path d="M1.8064 15.9009C0.841523 15.9009 0.0562134 16.6857 0.0562134 17.6509C0.0562134 18.6157 0.841523 19.4009 1.8064 19.4009C2.77128 19.4009 3.55621 18.6161 3.55621 17.6509C3.55621 16.6857 2.77128 15.9009 1.8064 15.9009Z" fill="#F2994A"/>
<path d="M9.75458 15.9009C8.78965 15.9009 8.00439 16.6857 8.00439 17.6509C8.00439 18.6157 8.78938 19.4009 9.75458 19.4009C10.7193 19.4009 11.5044 18.6161 11.5044 17.6509C11.5044 16.6857 10.7193 15.9009 9.75458 15.9009Z" fill="#F2994A"/>
<path d="M17.8311 15.9009C16.8663 15.9009 16.0811 16.6857 16.0811 17.6509C16.0811 18.6157 16.8663 19.4009 17.8311 19.4009C18.7962 19.4009 19.5811 18.6161 19.5811 17.6509C19.5811 16.6857 18.7958 15.9009 17.8311 15.9009Z" fill="#F2994A"/>
</svg>
