<svg width="19" height="13" viewBox="0 0 19 13" fill="none" xmlns="http://www.w3.org/2000/svg">
<path d="M6.65 9.92143L8.55 10.5891V6.18921C8.54895 6.01406 8.45001 5.84621 8.2745 5.72185L2.1185 1.33532H16.9005L10.754 5.72185C10.5785 5.84621 10.4796 6.01406 10.4785 6.18921L10.45 11.3502L12.35 12.0179V6.46295L18.601 2.00298C18.8511 1.82469 18.9939 1.58563 19 1.33532V0.66766C19 0.490586 18.8999 0.320764 18.7218 0.195553C18.5436 0.0703427 18.302 0 18.05 0H0.95C0.698044 0 0.456408 0.0703427 0.278249 0.195553C0.100089 0.320764 0 0.490586 0 0.66766V1.33532C0.00607763 1.58563 0.148946 1.82469 0.399 2.00298L6.65 6.46295V9.92143Z" fill="#323334"/>
</svg>
