<svg width="16" height="16" viewBox="0 0 16 16" fill="none" xmlns="http://www.w3.org/2000/svg">
<path d="M1.53568 5.58934C1.73808 5.73216 2.34818 6.15635 3.36602 6.86168C4.38389 7.567 5.16365 8.11009 5.70532 8.49096C5.76484 8.53271 5.89127 8.62346 6.08469 8.76335C6.27815 8.90332 6.43889 9.01644 6.5668 9.10272C6.6948 9.18897 6.84953 9.28573 7.03117 9.39284C7.21274 9.49985 7.38389 9.58035 7.5446 9.63364C7.70535 9.68737 7.85414 9.71398 7.99102 9.71398H8H8.00901C8.14589 9.71398 8.29475 9.68733 8.45549 9.63364C8.61614 9.58035 8.78745 9.49976 8.96886 9.39284C9.15037 9.2856 9.30511 9.18894 9.43311 9.10272C9.56111 9.01644 9.72173 8.90332 9.91524 8.76335C10.1086 8.62334 10.2352 8.53271 10.2947 8.49096C10.8423 8.11009 12.2352 7.14279 14.4733 5.58915C14.9078 5.28571 15.2708 4.91957 15.5624 4.49098C15.8542 4.06257 16 3.61315 16 3.14296C16 2.75005 15.8586 2.41371 15.5758 2.13397C15.293 1.85418 14.9582 1.71436 14.5714 1.71436H1.42851C0.970209 1.71436 0.617514 1.86909 0.370489 2.17857C0.123496 2.48811 0 2.87502 0 3.33926C0 3.71425 0.163745 4.12061 0.491077 4.55809C0.818379 4.9956 1.1667 5.33938 1.53568 5.58934Z" fill="white" fill-opacity="0.5"/>
<path d="M15.107 6.54458C13.1548 7.86589 11.6725 8.89276 10.6607 9.62498C10.3215 9.87488 10.0462 10.07 9.83485 10.2098C9.62348 10.3496 9.34237 10.4925 8.99111 10.6383C8.63998 10.7842 8.31274 10.857 8.00912 10.857H8.00001H7.99104C7.68747 10.857 7.36005 10.7842 7.00892 10.6383C6.65779 10.4925 6.37649 10.3496 6.16518 10.2098C5.95393 10.07 5.6786 9.87488 5.33936 9.62498C4.53574 9.03574 3.0566 8.0088 0.901876 6.54458C0.562503 6.31854 0.26191 6.05944 0 5.76782V12.8569C0 13.25 0.139821 13.5862 0.419618 13.8659C0.699353 14.1458 1.03572 14.2857 1.4286 14.2857H14.5715C14.9643 14.2857 15.3006 14.1458 15.5804 13.8659C15.8602 13.5861 16 13.25 16 12.8569V5.76782C15.744 6.05341 15.4465 6.3125 15.107 6.54458Z" fill="white" fill-opacity="0.5"/>
</svg>
