<svg width="54" height="54" viewBox="0 0 54 54" fill="none" xmlns="http://www.w3.org/2000/svg">
<rect y="54" width="54" height="54" rx="27" transform="rotate(-90 0 54)" fill="transparent"/>
<path d="M26.8933 18.2654L19.251 26.4329C18.9163 26.7913 18.9163 27.3719 19.251 27.7312C19.5856 28.0896 20.129 28.0896 20.4636 27.7312L27.4996 20.2116L34.5355 27.7303C34.8701 28.0887 35.4136 28.0887 35.749 27.7303C36.0837 27.3719 36.0837 26.7904 35.749 26.432L28.1068 18.2645C27.7757 17.9117 27.2236 17.9117 26.8933 18.2654Z" fill="#F2994A"/>
<path d="M26.8933 24.2654L19.251 32.4329C18.9163 32.7913 18.9163 33.3719 19.251 33.7312C19.5856 34.0896 20.129 34.0896 20.4636 33.7312L27.4996 26.2116L34.5355 33.7303C34.8701 34.0887 35.4136 34.0887 35.749 33.7303C36.0837 33.3719 36.0837 32.7904 35.749 32.432L28.1068 24.2645C27.7757 23.9117 27.2236 23.9117 26.8933 24.2654Z" fill="#F2994A"/>
</svg>
