<svg width="16" height="16" viewBox="0 0 16 16" fill="none" xmlns="http://www.w3.org/2000/svg">
<path d="M7.99958 7.82505C9.7785 7.82505 11.2207 6.07337 11.2207 3.91255C11.2207 1.75168 10.7472 0 7.99958 0C5.25192 0 4.77832 1.75168 4.77832 3.91255C4.77832 6.07337 6.22056 7.82505 7.99958 7.82505Z" fill="white" fill-opacity="0.5"/>
<path d="M1.91567 13.7989C1.91512 13.6671 1.91457 13.7618 1.91567 13.7989V13.7989Z" fill="white" fill-opacity="0.5"/>
<path d="M14.084 13.9019C14.0857 13.8658 14.0846 13.6517 14.084 13.9019V13.9019Z" fill="white" fill-opacity="0.5"/>
<path d="M14.0773 13.641C14.0176 9.87679 13.526 8.80419 9.76402 8.12524C9.76402 8.12524 9.23446 8.80003 8.00017 8.80003C6.76589 8.80003 6.23624 8.12524 6.23624 8.12524C2.51533 8.79679 1.99382 9.85347 1.92525 13.5187C1.91963 13.818 1.91702 13.8337 1.91602 13.799C1.91624 13.8641 1.91652 13.9845 1.91652 14.1945C1.91652 14.1945 2.81215 16 8.00017 16C13.1881 16 14.0838 14.1945 14.0838 14.1945C14.0838 14.0596 14.0839 13.9657 14.0841 13.9019C14.0831 13.9234 14.081 13.8818 14.0773 13.641Z" fill="white" fill-opacity="0.5"/>
</svg>
