<svg width="21" height="21" viewBox="0 0 21 21" fill="none" xmlns="http://www.w3.org/2000/svg">
<g clip-path="url(#clip0_48_617)">
<path d="M6.42896 17.9135C6.73099 17.9135 6.97583 17.6686 6.97583 17.3666C6.97583 17.0645 6.73099 16.8197 6.42896 16.8197C6.12692 16.8197 5.88208 17.0645 5.88208 17.3666C5.88208 17.6686 6.12692 17.9135 6.42896 17.9135Z" fill="#323334"/>
<path fill-rule="evenodd" clip-rule="evenodd" d="M6.42896 17.5697C6.54114 17.5697 6.63208 17.4788 6.63208 17.3666C6.63208 17.2544 6.54114 17.1635 6.42896 17.1635C6.31677 17.1635 6.22583 17.2544 6.22583 17.3666C6.22583 17.4788 6.31677 17.5697 6.42896 17.5697ZM5.13208 17.3666C5.13208 16.6503 5.71271 16.0697 6.42896 16.0697C7.1452 16.0697 7.72583 16.6503 7.72583 17.3666C7.72583 18.0828 7.1452 18.6635 6.42896 18.6635C5.71271 18.6635 5.13208 18.0828 5.13208 17.3666Z" fill="#323334"/>
<path d="M14.0853 17.9135C14.3874 17.9135 14.6322 17.6687 14.6322 17.3666C14.6322 17.0646 14.3874 16.8198 14.0853 16.8198C13.7833 16.8198 13.5385 17.0646 13.5385 17.3666C13.5385 17.6687 13.7833 17.9135 14.0853 17.9135Z" fill="#323334"/>
<path fill-rule="evenodd" clip-rule="evenodd" d="M14.0853 17.5698C14.1975 17.5698 14.2885 17.4788 14.2885 17.3666C14.2885 17.2545 14.1975 17.1635 14.0853 17.1635C13.9731 17.1635 13.8822 17.2545 13.8822 17.3666C13.8822 17.4788 13.9731 17.5698 14.0853 17.5698ZM12.7885 17.3666C12.7885 16.6504 13.3691 16.0698 14.0853 16.0698C14.8016 16.0698 15.3822 16.6504 15.3822 17.3666C15.3822 18.0829 14.8016 18.6635 14.0853 18.6635C13.3691 18.6635 12.7885 18.0829 12.7885 17.3666Z" fill="#323334"/>
<path fill-rule="evenodd" clip-rule="evenodd" d="M-0.336548 0.413513C-0.336548 -0.000700384 -0.00076142 -0.336487 0.413452 -0.336487H2.60095C2.96758 -0.336487 3.28047 -0.071427 3.34075 0.290214L3.78317 2.94476H17.9135C18.1409 2.94476 18.3561 3.04802 18.4985 3.22547C18.6408 3.40292 18.6949 3.63539 18.6456 3.85746L16.4581 13.7012C16.3818 14.0444 16.0775 14.2885 15.726 14.2885H4.78845C4.42182 14.2885 4.10893 14.0235 4.04866 13.6618L1.96561 1.16351H0.413452C-0.00076142 1.16351 -0.336548 0.827727 -0.336548 0.413513ZM4.03317 4.44476L5.4238 12.7885H15.1243L16.9785 4.44476H4.03317Z" fill="#323334"/>
</g>
<defs>
<clipPath id="clip0_48_617">
<rect width="21" height="21" fill="white"/>
</clipPath>
</defs>
</svg>
